<?xml version="1.0" encoding="UTF-8" standalone="no"?>
<!-- Created with Inkscape (http://www.inkscape.org/) -->

<svg
   xmlns:dc="http://purl.org/dc/elements/1.1/"
   xmlns:cc="http://creativecommons.org/ns#"
   xmlns:rdf="http://www.w3.org/1999/02/22-rdf-syntax-ns#"
   xmlns:svg="http://www.w3.org/2000/svg"
   xmlns="http://www.w3.org/2000/svg"
   xmlns:sodipodi="http://sodipodi.sourceforge.net/DTD/sodipodi-0.dtd"
   xmlns:inkscape="http://www.inkscape.org/namespaces/inkscape"
   width="10.947092"
   height="9.8965845"
   id="svg3078"
   version="1.1"
   inkscape:version="0.48.2 r9819"
   sodipodi:docname="New document 4">
  <defs
     id="defs3080" />
  <sodipodi:namedview
     id="base"
     pagecolor="#ffffff"
     bordercolor="#666666"
     borderopacity="1.0"
     inkscape:pageopacity="0.0"
     inkscape:pageshadow="2"
     inkscape:zoom="5.6"
     inkscape:cx="29.505516"
     inkscape:cy="7.563636"
     inkscape:document-units="px"
     inkscape:current-layer="layer1"
     showgrid="false"
     fit-margin-top="0"
     fit-margin-left="0"
     fit-margin-right="0"
     fit-margin-bottom="0"
     inkscape:window-width="469"
     inkscape:window-height="403"
     inkscape:window-x="2020"
     inkscape:window-y="650"
     inkscape:window-maximized="0" />
  <metadata
     id="metadata3083">
    <rdf:RDF>
      <cc:Work
         rdf:about="">
        <dc:format>image/svg+xml</dc:format>
        <dc:type
           rdf:resource="http://purl.org/dc/dcmitype/StillImage" />
        <dc:title></dc:title>
      </cc:Work>
    </rdf:RDF>
  </metadata>
  <g
     inkscape:label="Layer 1"
     inkscape:groupmode="layer"
     id="layer1"
     transform="translate(-474.52646,-570.27104)">
    <path
       style="color:#000000;fill:#000000;fill-opacity:1;fill-rule:evenodd;stroke:none;stroke-width:3.29999995;marker:none;visibility:visible;display:inline;overflow:visible;enable-background:accumulate"
       d="m 484.23496,575.77129 c -0.82253,-0.23694 -1.61919,-0.66595 -2.15522,-1.34824 -1.11884,-0.22582 -1.94463,-1.08672 -2.95694,-1.54373 -0.58799,-0.16508 -1.20076,-0.42037 -1.56199,-0.93894 -0.47116,-0.32528 -0.98139,-0.7556 -1.59087,-0.68674 -0.43341,0.96243 0.13407,2.02525 -0.18364,3.00994 -0.14545,1.30792 -0.40511,2.60987 -0.37971,3.93118 -0.32219,0.57057 0.46615,1.29501 1.0118,0.94265 1.20372,-0.2729 2.23079,-1.02545 3.42764,-1.31916 0.97079,-0.73827 2.3707,-0.73035 3.1916,-1.69426 0.13974,-0.59542 1.26012,-0.51308 1.21594,0.13182 -0.13593,0.56057 -0.79338,0.66017 -1.24427,0.87102 -1.10278,0.69008 -2.41684,0.93283 -3.54535,1.57376 -0.96194,0.36309 -1.88977,0.82899 -2.89874,1.05275 -0.40094,0.10399 -0.77978,0.2952 -1.16965,0.41428 -0.61897,-0.0137 -0.97768,-0.73387 -0.83968,-1.28545 0.2235,-2.24371 0.45071,-4.488 0.57415,-6.74013 -0.13857,-0.55155 -0.36406,-1.2408 0.0828,-1.71447 0.66024,-0.38544 1.45561,0.005 1.95581,0.47818 2.20449,1.63649 4.85108,2.55361 7.03266,4.22514 0.17134,0.14871 0.3313,0.52803 0.0337,0.6404 z"
       id="path3391-1-0-1"
       inkscape:connector-curvature="0" />
    <path
       style="color:#000000;fill:#000000;fill-opacity:1;fill-rule:evenodd;stroke:none;stroke-width:3.29999995;marker:none;visibility:visible;display:inline;overflow:visible;enable-background:accumulate"
       d="m 475.43978,573.2636 c 0.0366,-1.06132 0.0736,-2.04511 0.0822,-2.1862 0.0269,-0.44043 0.70263,-0.27772 1.73302,0.4173 1.04032,0.70172 2.66199,1.62408 4.47972,2.54794 0.69588,0.35369 1.01268,0.62053 0.88679,0.74697 -0.10772,0.1082 -1.78266,0.24329 -3.72205,0.30019 l -3.52619,0.10345 0.0665,-1.92965 z"
       id="path3462-6-6-4"
       inkscape:connector-curvature="0" />
    <path
       style="color:#000000;fill:#000000;fill-opacity:1;fill-rule:evenodd;stroke:none;stroke-width:3.29999995;marker:none;visibility:visible;display:inline;overflow:visible;enable-background:accumulate"
       d="m 475.11633,579.16948 c -0.20979,-0.2109 -0.29811,-0.50412 -0.22775,-0.75614 0.0632,-0.2264 0.11964,-0.87547 0.1254,-1.44238 l 0.0108,-1.03074 1.83399,0.0147 c 2.64707,0.0209 6.29335,0.27911 6.2921,0.44502 -5.8e-4,0.0782 -0.47094,0.33215 -1.04523,0.56437 -0.57429,0.23222 -1.40232,0.58854 -1.84007,0.79183 -1.51594,0.70395 -3.66386,1.54052 -4.23376,1.64893 -0.39656,0.0754 -0.67778,0.003 -0.91516,-0.23559 z"
       id="path3464-85-1-2"
       inkscape:connector-curvature="0" />
    <path
       style="color:#000000;fill:#000000;fill-opacity:1;fill-rule:evenodd;stroke:none;stroke-width:3.29999995;marker:none;visibility:visible;display:inline;overflow:visible;enable-background:accumulate"
       d="m 483.78152,576.23485 c 0.28141,-0.23901 0.62196,-0.39823 0.97266,-0.50684 -0.0149,-0.14796 -0.19231,-0.12701 -0.30073,-0.12754 -0.15775,-0.0234 -0.31168,-0.078 -0.46303,-0.12983 -0.17348,-0.0629 -0.3319,-0.16259 -0.46802,-0.28603 -0.21345,-0.1251 -0.47793,4e-4 -0.69484,-0.11563 -0.19566,-0.0781 -0.39466,-0.23641 -0.41951,-0.458 0.0254,-0.17721 0.26111,-0.23188 0.38501,-0.11977 0.16511,0.0809 0.34749,0.1671 0.53565,0.12084 0.25385,-0.008 0.49038,0.12559 0.66786,0.29817 0.25472,0.15648 0.57611,0.12386 0.83425,0.27213 0.15052,0.0346 0.32702,0.0523 0.42763,0.18478 0.17545,-0.01 0.25753,0.21336 0.19342,0.35353 -0.11965,0.28872 -0.42395,0.41996 -0.69015,0.54007 -0.1797,0.0802 -0.3472,0.18443 -0.51223,0.29092 -0.18911,0.0498 -0.3612,-0.10339 -0.43319,-0.26591 -0.0113,-0.0172 -0.0228,-0.0342 -0.0348,-0.0509 z"
       id="path3480-7-8-3"
       inkscape:connector-curvature="0" />
    <path
       style="color:#000000;fill:#000000;fill-opacity:1;fill-rule:evenodd;stroke:none;stroke-width:3.29999995;marker:none;visibility:visible;display:inline;overflow:visible;enable-background:accumulate"
       id="path3482-6-9-2"
       d="m 484.71826,575.8958 c -0.24344,-0.10034 -0.47434,-0.2194 -0.6849,-0.37781 -0.0126,-0.009 -0.0231,-0.0219 -0.0378,-0.0265 -0.007,-0.002 -0.002,0.0199 0.005,0.0203 0.0506,0.003 0.10131,0.008 0.15202,0.006 0.007,-1.5e-4 0.0183,-0.003 0.0182,-0.0102 -1.4e-4,-0.006 -0.0122,0.004 -0.0182,0.005 -0.17244,0.0644 -0.35884,0.0492 -0.53906,0.0458 -0.18206,0.0104 -0.27333,-0.067 -0.40955,-0.16822 -0.0122,-0.0101 -0.0245,-0.0197 -0.0367,-0.0296 -0.0248,-0.0259 0.34055,-0.37679 0.36536,-0.35095 l 0,0 c 0.009,0.006 0.0175,0.0127 0.0263,0.0191 0.009,0.006 0.0393,0.0297 0.0548,0.0347 0.0188,0.006 -0.004,-0.008 0.007,-0.009 0.0439,-0.004 0.0881,0.009 0.13216,0.003 -0.0194,-1.3e-4 -0.0775,-0.004 -0.0583,-4.1e-4 0.0718,0.0118 0.14833,0.003 0.22042,0.0152 0.0284,-0.009 0.0544,-0.0269 0.0839,-0.029 0.15603,-0.0106 0.25603,0.008 0.38616,0.0853 0.20976,0.11461 0.42721,0.21504 0.63118,0.33988 0.0301,0.0211 -0.26814,0.44776 -0.29831,0.42666 z"
       inkscape:connector-curvature="0" />
    <path
       style="color:#000000;fill:#000000;fill-opacity:1;fill-rule:evenodd;stroke:none;stroke-width:3.29999995;marker:none;visibility:visible;display:inline;overflow:visible;enable-background:accumulate"
       d="m 474.95414,574.40609 c 0.0519,-1.5394 0.10431,-2.96635 0.1165,-3.17099 0.0381,-0.63883 0.99581,-0.40283 2.45615,0.60527 1.47441,1.01782 3.77274,2.35566 6.34895,3.69569 0.98624,0.51301 1.43523,0.90005 1.25681,1.08345 -0.15266,0.15694 -2.5265,0.35288 -5.27513,0.43541 l -4.99754,0.15005 0.0942,-2.79888 z"
       id="path3462-6-6-4-2"
       inkscape:connector-curvature="0" />
  </g>
</svg>
