<?xml version="1.0" encoding="UTF-8" standalone="no"?>
<svg
   xmlns:dc="http://purl.org/dc/elements/1.1/"
   xmlns:cc="http://creativecommons.org/ns#"
   xmlns:rdf="http://www.w3.org/1999/02/22-rdf-syntax-ns#"
   xmlns:svg="http://www.w3.org/2000/svg"
   xmlns="http://www.w3.org/2000/svg"
   xmlns:sodipodi="http://sodipodi.sourceforge.net/DTD/sodipodi-0.dtd"
   xmlns:inkscape="http://www.inkscape.org/namespaces/inkscape"
   width="39.232635"
   height="154.65625"
   id="svg2"
   version="1.1"
   inkscape:version="0.48.2 r9819"
   sodipodi:docname="treetop.svg">
  <defs
     id="defs4" />
  <sodipodi:namedview
     id="base"
     pagecolor="#ffffff"
     bordercolor="#666666"
     borderopacity="1.0"
     inkscape:pageopacity="0.0"
     inkscape:pageshadow="2"
     inkscape:zoom="5.6"
     inkscape:cx="58.36733"
     inkscape:cy="93.184933"
     inkscape:document-units="px"
     inkscape:current-layer="layer1"
     showgrid="false"
     inkscape:window-width="1366"
     inkscape:window-height="706"
     inkscape:window-x="1912"
     inkscape:window-y="542"
     inkscape:window-maximized="1"
     fit-margin-top="0"
     fit-margin-left="0"
     fit-margin-right="0"
     fit-margin-bottom="0" />
  <metadata
     id="metadata7">
    <rdf:RDF>
      <cc:Work
         rdf:about="">
        <dc:format>image/svg+xml</dc:format>
        <dc:type
           rdf:resource="http://purl.org/dc/dcmitype/StillImage" />
        <dc:title />
      </cc:Work>
    </rdf:RDF>
  </metadata>
  <g
     inkscape:label="Layer 1"
     inkscape:groupmode="layer"
     id="layer1"
     transform="translate(-168.95512,-240.74834)">
    <path
       style="color:#000000;fill:#1e1e1e;fill-opacity:1;fill-rule:evenodd;stroke:none;stroke-width:3.29999995;marker:none;visibility:visible;display:inline;overflow:visible;enable-background:accumulate"
       id="path3647-3-2"
       d="m 169.45844,270.53237 c 0.51114,-1.54154 1.24903,-2.69745 1.97668,-3.83132 0.46205,-0.72001 0.93694,-1.40836 1.4107,-2.09904 1.05465,-1.53761 2.12135,-3.04379 3.17921,-4.57311 0.48992,-0.73767 0.98208,-1.46983 1.46979,-2.21305 1.15741,-1.76378 1.35473,-2.07188 2.43925,-3.8808 0.50139,-0.8363 1.58573,-2.70846 2.10102,-3.53033 0.36249,-0.5781 0.73735,-1.12622 1.10601,-1.68934 1.51397,-2.20807 3.09387,-4.23543 4.64553,-6.33943 0.43267,-0.62913 0.24034,-0.31106 0.58434,-0.9372 0.78954,-1.40439 1.81095,0.76677 1.02139,2.17116 l 0,0 c -0.4743,0.83047 -0.22753,0.43702 -0.74041,1.18003 -1.52869,2.07099 -3.08367,4.07058 -4.57665,6.24035 -0.35182,0.53624 -0.70979,1.05756 -1.05546,1.60875 -0.50768,0.80953 -1.62058,2.72941 -2.10904,3.54358 -1.10192,1.83664 -1.32051,2.1789 -2.48957,3.95994 -0.4955,0.75491 -0.99554,1.49851 -1.49332,2.24778 -1.05244,1.52145 -2.11326,3.02091 -3.16301,4.54935 -0.45536,0.66301 -0.91036,1.32733 -1.35627,2.01417 -0.65108,1.0029 -1.30823,2.0021 -1.75568,3.38506 -0.65695,1.6424 -1.85146,-0.16416 -1.19451,-1.80655 z"
       inkscape:connector-curvature="0" />
    <path
       style="color:#000000;fill:#1e1e1e;fill-opacity:1;fill-rule:evenodd;stroke:none;stroke-width:3.29999995;marker:none;visibility:visible;display:inline;overflow:visible;enable-background:accumulate"
       d="m 207.58191,277.01935 c -3.9137,-8.68113 -9.26443,-14.79611 -12.57306,-24.50055 -1.60145,-4.18114 -3.20634,-8.47089 -5.35498,-11.71256 -0.80894,2.4438 0.0939,5.52972 1.22441,6.95666 3.40163,5.50591 5.14241,13.92315 8.81871,18.89932 1.87194,3.21124 3.82677,6.24741 5.64461,9.57242 -0.18118,2.23362 2.23671,3.61753 2.24031,0.78471 z"
       id="path3643-4-4-6"
       inkscape:connector-curvature="0" />
    <path
       style="color:#000000;fill:#1e1e1e;fill-opacity:1;fill-rule:evenodd;stroke:none;stroke-width:3.29999995;marker:none;visibility:visible;display:inline;overflow:visible;enable-background:accumulate"
       id="path3639-3"
       d="m 170.66249,371.30206 c 0.63287,-1.9192 1.27234,-3.82986 1.94593,-5.70156 1.30883,-3.26376 2.91867,-6.05479 4.34876,-9.13018 0.86058,-1.85062 1.40142,-3.16854 2.21044,-5.07608 0.86719,-2.01796 1.65283,-4.14603 2.46679,-6.23541 0.65046,-1.66968 1.30898,-3.32584 1.94979,-5.00843 0.84466,-2.3046 1.80683,-4.46661 2.86841,-6.44531 0.42284,-0.78815 0.93963,-1.63621 1.38739,-2.3865 0.72527,-1.12681 0.38185,-0.60125 1.02887,-1.57984 0.81855,-1.23775 1.77005,0.89183 0.95151,2.1296 l 0,0 c -0.61791,0.93416 -0.29371,0.43866 -0.97161,1.48868 -0.38733,0.64843 -0.938,1.5545 -1.30173,2.231 -1.01332,1.88471 -1.93222,3.94413 -2.73565,6.14423 -0.64138,1.68389 -1.30039,3.3415 -1.95136,5.01257 -0.82837,2.12654 -1.62856,4.29163 -2.51112,6.34548 -0.8452,1.9917 -1.372,3.27737 -2.27292,5.21383 -1.3844,2.97574 -2.93737,5.68279 -4.21853,8.8193 -0.65883,1.82664 -1.28139,3.69473 -1.90063,5.56764 -0.53389,1.68372 -1.82823,0.29471 -1.29434,-1.38902 z"
       inkscape:connector-curvature="0" />
    <path
       style="color:#000000;fill:#1e1e1e;fill-opacity:1;fill-rule:evenodd;stroke:none;stroke-width:3.29999995;marker:none;visibility:visible;display:inline;overflow:visible;enable-background:accumulate"
       id="path3641-24"
       d="m 174.63517,372.21726 c 0.66166,-3.39653 1.92263,-6.25288 3.09511,-9.09113 2.06458,-4.75146 3.84976,-9.87914 5.56252,-15.07343 0.2385,-0.78067 0.48207,-1.55618 0.71553,-2.342 0.2293,-0.77188 0.45644,-1.54619 0.67263,-2.33078 0.66039,-2.39678 1.24535,-4.86141 1.96539,-7.203 0.23429,-0.76192 0.49249,-1.4981 0.73874,-2.24715 0.88239,-2.46206 1.89588,-4.75105 2.91043,-7.0297 0.67149,-1.50786 1.83064,0.23915 1.15914,1.74699 l 0,0 c -0.97002,2.17777 -1.93951,4.36452 -2.78805,6.71142 -0.23185,0.7023 -0.47539,1.39197 -0.69555,2.10689 -0.72116,2.34198 -1.30546,4.80999 -1.9667,7.20756 -0.22179,0.8042 -0.45468,1.59801 -0.68996,2.38912 -0.24157,0.81223 -0.49366,1.61372 -0.74049,2.42058 -1.74036,5.27601 -3.5544,10.48404 -5.65078,15.31194 -1.05337,2.54757 -2.18028,5.09092 -2.83423,8.0913 -0.25699,1.89105 -1.71072,1.22246 -1.45373,-0.66861 z"
       inkscape:connector-curvature="0" />
    <path
       style="color:#000000;fill:#1e1e1e;fill-opacity:1;fill-rule:evenodd;stroke:none;stroke-width:3.29999995;marker:none;visibility:visible;display:inline;overflow:visible;enable-background:accumulate"
       id="path3643-44"
       d="m 169.89902,361.1242 c 0.38581,-0.95802 0.84826,-1.79536 1.29677,-2.65091 0.31418,-0.59928 0.61856,-1.21633 0.9415,-1.79962 1.00149,-1.80885 1.86217,-3.18326 2.91535,-4.9183 2.06975,-3.29656 4.13806,-6.62297 5.88596,-10.51884 0.65148,-1.45208 1.6107,-3.90758 2.21892,-5.436 1.36969,-3.53993 2.81514,-7.00594 4.48685,-10.08503 0.47451,-0.77597 0.24282,-0.42896 0.68962,-1.05316 0.84779,-1.16927 1.74664,1.03638 0.89886,2.20565 l 0,0 c -0.33027,0.44709 -0.15119,0.18683 -0.52963,0.7981 -1.6217,2.97071 -3.00777,6.34582 -4.33672,9.7631 -0.66283,1.66477 -1.59575,4.05676 -2.30494,5.63259 -1.78829,3.97355 -3.89398,7.38323 -6.00939,10.74739 -0.97744,1.60954 -1.90156,3.08991 -2.83523,4.77612 -0.32419,0.58548 -0.62953,1.20529 -0.94509,1.80647 -0.38603,0.73539 -0.78356,1.45352 -1.12603,2.26157 -0.58774,1.62188 -1.83455,0.0928 -1.2468,-1.52913 z"
       inkscape:connector-curvature="0" />
    <path
       style="color:#000000;fill:#1e1e1e;fill-opacity:1;fill-rule:evenodd;stroke:none;stroke-width:3.29999995;marker:none;visibility:visible;display:inline;overflow:visible;enable-background:accumulate"
       id="path3645-27"
       d="m 171.05197,362.18996 c 0.41794,-2.01562 1.16917,-3.61601 1.90753,-5.19272 0.73291,-1.56503 1.57961,-3.28066 2.32554,-4.80758 2.06271,-4.2566 4.15042,-8.46689 6.17067,-12.8024 1.78723,-4.02491 3.57727,-8.04473 5.36977,-12.06062 0.61672,-1.38166 1.60797,0.33759 0.99126,1.71925 l 0,0 c -1.79875,4.02983 -3.59476,8.06409 -5.38872,12.10214 -2.02755,4.35002 -4.12174,8.57627 -6.19194,12.84699 -0.84716,1.73403 -1.47476,3.0014 -2.29708,4.74746 -0.64302,1.36534 -1.31281,2.73329 -1.6763,4.48573 -0.37243,1.68759 -1.58316,0.64934 -1.21073,-1.03825 z"
       inkscape:connector-curvature="0" />
    <path
       style="color:#000000;fill:#1e1e1e;fill-opacity:1;fill-rule:evenodd;stroke:none;stroke-width:3.29999995;marker:none;visibility:visible;display:inline;overflow:visible;enable-background:accumulate"
       id="path3647-9"
       d="m 170.49429,352.93742 c 0.51114,-1.54153 1.24903,-2.69743 1.97667,-3.83132 0.46205,-0.72 0.93695,-1.40834 1.4107,-2.09903 1.05466,-1.53759 2.12136,-3.04379 3.17922,-4.5731 0.48991,-0.73769 0.98208,-1.46983 1.46978,-2.21306 1.15742,-1.76379 1.35474,-2.07188 2.43925,-3.8808 0.50138,-0.83629 1.58574,-2.70845 2.10103,-3.53032 0.36247,-0.57812 0.73734,-1.12622 1.10601,-1.68935 1.51397,-2.20806 3.09387,-4.23543 4.64553,-6.33943 0.43265,-0.62912 0.24033,-0.31105 0.58432,-0.93721 0.78954,-1.40438 1.81096,0.76678 1.02141,2.17118 l 0,0 c -0.47431,0.83045 -0.22754,0.43703 -0.74041,1.18003 -1.5287,2.07099 -3.08369,4.07056 -4.57665,6.24033 -0.35182,0.53626 -0.70979,1.05757 -1.05546,1.60875 -0.50769,0.80953 -1.62059,2.72943 -2.10904,3.54358 -1.10194,1.83665 -1.32052,2.1789 -2.48958,3.95994 -0.49551,0.75492 -0.99554,1.49852 -1.49332,2.24778 -1.05244,1.52145 -2.11327,3.02091 -3.16301,4.54936 -0.45536,0.66301 -0.91037,1.32733 -1.35627,2.01419 -0.65108,1.00289 -1.30822,2.00207 -1.75567,3.38503 -0.65695,1.64241 -1.85146,-0.16415 -1.19451,-1.80655 z"
       inkscape:connector-curvature="0" />
    <path
       style="color:#000000;fill:#1e1e1e;fill-opacity:1;fill-rule:evenodd;stroke:none;stroke-width:3.29999995;marker:none;visibility:visible;display:inline;overflow:visible;enable-background:accumulate"
       d="m 206.29922,372.85141 c -2.80093,-10.37553 -7.70088,-18.32474 -10.09215,-29.13538 -1.28979,-4.63467 -2.57767,-9.32786 -4.34908,-13.40851 -0.68572,-3.42762 -2.97946,2.16654 -1.06174,2.85201 1.56487,2.45119 2.47564,5.98724 3.40773,9.30234 1.08734,4.21028 2.22343,8.38671 3.64419,12.25023 1.72639,5.01886 3.6237,9.83711 5.69385,14.38668 0.15524,2.22776 1.40923,5.48052 2.7572,3.75263 z"
       id="path3641-5-2"
       inkscape:connector-curvature="0" />
    <path
       style="color:#000000;fill:#1e1e1e;fill-opacity:1;fill-rule:evenodd;stroke:none;stroke-width:3.29999995;marker:none;visibility:visible;display:inline;overflow:visible;enable-background:accumulate"
       d="m 207.45369,368.1139 c -3.23547,-10.57406 -8.46483,-18.29536 -11.71058,-28.8557 -1.58808,-4.1574 -3.27319,-8.25635 -5.37448,-11.52729 -1.19407,1.67072 -0.4559,5.46431 0.83266,6.14572 2.5901,3.15673 3.68941,8.9205 5.65364,13.1871 2.51437,6.30724 5.25111,12.27562 7.98096,18.24429 0.32922,1.76603 1.11414,4.44545 2.28676,3.79098 0.13022,-0.22192 0.51198,-0.55212 0.33104,-0.9851 z"
       id="path3639-9-37"
       inkscape:connector-curvature="0" />
    <path
       style="color:#000000;fill:#1e1e1e;fill-opacity:1;fill-rule:evenodd;stroke:none;stroke-width:3.29999995;marker:none;visibility:visible;display:inline;overflow:visible;enable-background:accumulate"
       d="m 208.18775,358.08118 c -3.9137,-8.68113 -9.26444,-14.79611 -12.57306,-24.50055 -1.60146,-4.18114 -3.20634,-8.4709 -5.355,-11.71258 -0.80893,2.44382 0.0939,5.52974 1.22443,6.95667 3.40163,5.50592 5.14241,13.92314 8.81871,18.89933 1.87194,3.21123 3.82677,6.2474 5.64461,9.57241 -0.18118,2.23363 2.2367,3.61753 2.24031,0.78472 z"
       id="path3643-4-3"
       inkscape:connector-curvature="0" />
    <path
       style="color:#000000;fill:#1e1e1e;fill-opacity:1;fill-rule:evenodd;stroke:none;stroke-width:3.29999995;marker:none;visibility:visible;display:inline;overflow:visible;enable-background:accumulate"
       d="m 207.07921,359.13174 c -3.51959,-10.50668 -8.80326,-18.26282 -12.58694,-28.37741 -0.9006,-1.16783 -1.00984,-4.22435 -2.25698,-4.38757 -1.67273,1.05876 -0.0352,5.00706 0.98705,5.85972 1.87376,2.67723 2.89177,6.87773 4.58572,9.90549 2.37224,4.86445 4.69959,9.80705 7.04442,14.71913 -0.007,1.85752 1.50176,4.74364 2.22673,2.28064 z"
       id="path3645-3-15"
       inkscape:connector-curvature="0" />
    <path
       style="color:#000000;fill:#1e1e1e;fill-opacity:1;fill-rule:evenodd;stroke:none;stroke-width:0.30000001;marker:none;visibility:visible;display:inline;overflow:visible;enable-background:accumulate"
       d="m 207.45,350.21707 c -4.17503,-8.41719 -9.55716,-14.21318 -13.78819,-22.5146 -1.02444,-1.69499 -2.46822,-2.58295 -3.10947,-5.01873 -1.57294,-1.66369 -1.98258,4.59348 -0.24565,4.23956 1.31032,1.0095 2.31767,3.02695 3.43971,4.60819 3.40727,5.33962 6.56821,11.26662 10.20092,16.07128 0.68158,1.99511 2.09992,5.09443 3.39931,3.00941 l 0.10338,-0.39511 z"
       id="path3647-1-7"
       inkscape:connector-curvature="0" />
    <path
       style="color:#000000;fill:#1e1e1e;fill-opacity:1;fill-rule:evenodd;stroke:none;stroke-width:3.29999995;marker:none;visibility:visible;display:inline;overflow:visible;enable-background:accumulate"
       id="path3639-6-8"
       d="m 169.87223,332.01026 c 0.63286,-1.9192 1.27234,-3.82985 1.94592,-5.70155 1.30885,-3.26376 2.91867,-6.0548 4.34877,-9.13019 0.86057,-1.85062 1.40141,-3.16855 2.21044,-5.07608 0.86719,-2.01796 1.65284,-4.14602 2.46679,-6.2354 0.65045,-1.6697 1.30897,-3.32584 1.94978,-5.00845 0.84467,-2.30458 1.80683,-4.4666 2.86841,-6.44529 0.42285,-0.78817 0.93963,-1.63622 1.38741,-2.3865 0.72527,-1.12681 0.38184,-0.60125 1.02885,-1.57984 0.81855,-1.23776 1.77005,0.89183 0.95152,2.12959 l 0,0 c -0.61791,0.93415 -0.29372,0.43865 -0.9716,1.48869 -0.38734,0.64841 -0.938,1.55448 -1.30173,2.231 -1.01334,1.88471 -1.93222,3.94411 -2.73565,6.14423 -0.6414,1.68388 -1.30041,3.34151 -1.95136,5.01256 -0.82839,2.12654 -1.62857,4.29163 -2.51114,6.34549 -0.84519,1.99169 -1.37199,3.27735 -2.2729,5.21384 -1.38442,2.97571 -2.93739,5.68276 -4.21854,8.81927 -0.65884,1.82664 -1.2814,3.69475 -1.90063,5.56764 -0.53389,1.68373 -1.82824,0.29472 -1.29434,-1.38901 z"
       inkscape:connector-curvature="0" />
    <path
       style="color:#000000;fill:#1e1e1e;fill-opacity:1;fill-rule:evenodd;stroke:none;stroke-width:3.29999995;marker:none;visibility:visible;display:inline;overflow:visible;enable-background:accumulate"
       id="path3641-50-5"
       d="m 172.84157,334.02448 c 0.66166,-3.39655 1.92263,-6.2529 3.09511,-9.09115 2.06458,-4.75146 3.84974,-9.87912 5.56252,-15.07342 0.2385,-0.78067 0.48207,-1.55619 0.71552,-2.34201 0.2293,-0.77187 0.45645,-1.54618 0.67263,-2.33077 0.6604,-2.39677 1.24536,-4.86141 1.96539,-7.20301 0.23429,-0.76192 0.4925,-1.49809 0.73875,-2.24714 0.88237,-2.46207 1.89588,-4.75105 2.91043,-7.0297 0.67149,-1.50786 1.83063,0.23914 1.15913,1.74699 l 0,0 c -0.97003,2.17776 -1.9395,4.36451 -2.78805,6.71143 -0.23184,0.70228 -0.47538,1.39195 -0.69554,2.10688 -0.72116,2.34198 -1.30546,4.80998 -1.9667,7.20756 -0.22179,0.8042 -0.45468,1.598 -0.68998,2.38912 -0.24156,0.81222 -0.49364,1.61371 -0.74048,2.42057 -1.74037,5.27601 -3.5544,10.48404 -5.65077,15.31194 -1.05338,2.54758 -2.18028,5.09092 -2.83423,8.0913 -0.25699,1.89106 -1.71072,1.22246 -1.45373,-0.66859 z"
       inkscape:connector-curvature="0" />
    <path
       style="color:#000000;fill:#1e1e1e;fill-opacity:1;fill-rule:evenodd;stroke:none;stroke-width:3.29999995;marker:none;visibility:visible;display:inline;overflow:visible;enable-background:accumulate"
       id="path3643-2-8"
       d="m 169.10876,321.83239 c 0.38581,-0.958 0.84827,-1.79535 1.29678,-2.65091 0.31416,-0.59927 0.61856,-1.21633 0.9415,-1.79961 1.00149,-1.80886 1.86217,-3.18326 2.91534,-4.9183 2.06976,-3.29657 4.13807,-6.62297 5.88596,-10.51884 0.65148,-1.45207 1.61069,-3.90757 2.21891,-5.436 1.36971,-3.53993 2.81515,-7.00593 4.48685,-10.08503 0.47452,-0.77597 0.24284,-0.42896 0.68963,-1.05317 0.84778,-1.16925 1.74663,1.03639 0.89885,2.20565 l 0,0 c -0.33025,0.44709 -0.15119,0.18684 -0.52963,0.79812 -1.62169,2.97072 -3.00777,6.34581 -4.3367,9.76309 -0.66283,1.66477 -1.59577,4.05676 -2.30496,5.63259 -1.78827,3.97354 -3.89397,7.38322 -6.00939,10.74739 -0.97744,1.60955 -1.90155,3.08991 -2.83521,4.77613 -0.3242,0.58548 -0.62953,1.20527 -0.94511,1.80646 -0.38601,0.7354 -0.78356,1.45352 -1.12601,2.26156 -0.58775,1.62189 -1.83456,0.0928 -1.24681,-1.52913 z"
       inkscape:connector-curvature="0" />
    <path
       style="color:#000000;fill:#1e1e1e;fill-opacity:1;fill-rule:evenodd;stroke:none;stroke-width:3.29999995;marker:none;visibility:visible;display:inline;overflow:visible;enable-background:accumulate"
       id="path3645-8-32"
       d="m 170.26172,322.89816 c 0.41792,-2.01563 1.16915,-3.61601 1.90752,-5.19271 0.7329,-1.56504 1.57962,-3.28068 2.32554,-4.80759 2.0627,-4.2566 4.15042,-8.46688 6.17067,-12.80239 1.78722,-4.02493 3.57727,-8.04475 5.36977,-12.06062 0.61671,-1.38168 1.60798,0.33757 0.99125,1.71925 l 0,0 c -1.79874,4.02983 -3.59475,8.06408 -5.38871,12.10214 -2.02755,4.35 -4.12175,8.57625 -6.19195,12.847 -0.84716,1.734 -1.47475,3.00138 -2.29706,4.74743 -0.64302,1.36534 -1.31281,2.73329 -1.67632,4.48573 -0.37243,1.6876 -1.58316,0.64935 -1.21071,-1.03824 z"
       inkscape:connector-curvature="0" />
    <path
       style="color:#000000;fill:#1e1e1e;fill-opacity:1;fill-rule:evenodd;stroke:none;stroke-width:3.29999995;marker:none;visibility:visible;display:inline;overflow:visible;enable-background:accumulate"
       id="path3647-6-4"
       d="m 169.41735,314.86674 c 0.51114,-1.54153 1.24903,-2.69744 1.97668,-3.83132 0.46204,-0.72001 0.93694,-1.40836 1.41069,-2.09903 1.05466,-1.5376 2.12136,-3.04379 3.17922,-4.5731 0.48992,-0.73769 0.98208,-1.46984 1.46979,-2.21307 1.15741,-1.76377 1.35473,-2.07186 2.43924,-3.88078 0.5014,-0.8363 1.58574,-2.70847 2.10103,-3.53033 0.36248,-0.57812 0.73734,-1.12623 1.10601,-1.68935 1.51397,-2.20807 3.09387,-4.23543 4.64553,-6.33944 0.43267,-0.62912 0.24034,-0.31105 0.58434,-0.93719 0.78953,-1.4044 1.81095,0.76678 1.02139,2.17116 l 0,0 c -0.4743,0.83046 -0.22753,0.43703 -0.74041,1.18004 -1.5287,2.07098 -3.08368,4.07056 -4.57665,6.24034 -0.35182,0.53624 -0.70979,1.05757 -1.05546,1.60874 -0.50769,0.80953 -1.62058,2.72943 -2.10904,3.54358 -1.10194,1.83665 -1.32052,2.1789 -2.48957,3.95994 -0.4955,0.75492 -0.99555,1.49853 -1.49333,2.24778 -1.05244,1.52146 -2.11325,3.02092 -3.163,4.54937 -0.45537,0.66299 -0.91037,1.32733 -1.35627,2.01417 -0.65108,1.00289 -1.30823,2.00208 -1.75568,3.38504 -0.65695,1.64242 -1.85146,-0.16414 -1.19451,-1.80655 z"
       inkscape:connector-curvature="0" />
    <path
       style="color:#000000;fill:#1e1e1e;fill-opacity:1;fill-rule:evenodd;stroke:none;stroke-width:3.29999995;marker:none;visibility:visible;display:inline;overflow:visible;enable-background:accumulate"
       d="m 205.50896,333.55961 c -2.80094,-10.37553 -7.70089,-18.32474 -10.09215,-29.13538 -1.2898,-4.63467 -2.57766,-9.32787 -4.34909,-13.40851 -0.68571,-3.42761 -2.97944,2.16654 -1.06174,2.852 1.56489,2.45121 2.47566,5.98725 3.40773,9.30237 1.08736,4.21025 2.22345,8.38669 3.64419,12.25022 1.7264,5.01885 3.6237,9.83711 5.69387,14.38666 0.15523,2.22777 1.40921,5.48054 2.75719,3.75264 z"
       id="path3641-5-0-1"
       inkscape:connector-curvature="0" />
    <path
       style="color:#000000;fill:#1e1e1e;fill-opacity:1;fill-rule:evenodd;stroke:none;stroke-width:3.29999995;marker:none;visibility:visible;display:inline;overflow:visible;enable-background:accumulate"
       d="m 206.66343,328.8221 c -3.23547,-10.57406 -8.46483,-18.29535 -11.71058,-28.8557 -1.58809,-4.15739 -3.27318,-8.25634 -5.37447,-11.52728 -1.19407,1.67071 -0.45592,5.46431 0.83265,6.14571 2.5901,3.15673 3.6894,8.9205 5.65363,13.1871 2.51438,6.30725 5.25112,12.27563 7.98097,18.2443 0.32921,1.76603 1.11413,4.44546 2.28675,3.79099 0.13022,-0.22194 0.51198,-0.55213 0.33105,-0.98512 z"
       id="path3639-9-4-1"
       inkscape:connector-curvature="0" />
    <path
       style="color:#000000;fill:#1e1e1e;fill-opacity:1;fill-rule:evenodd;stroke:none;stroke-width:3.29999995;marker:none;visibility:visible;display:inline;overflow:visible;enable-background:accumulate"
       d="m 207.39749,318.78938 c -3.91371,-8.68112 -9.26444,-14.79611 -12.57307,-24.50055 -1.60145,-4.18114 -3.20634,-8.47089 -5.35498,-11.71256 -0.80894,2.4438 0.0939,5.52973 1.22441,6.95667 3.40164,5.5059 5.14241,13.92314 8.81871,18.89932 1.87194,3.21123 3.82678,6.24739 5.64461,9.57242 -0.18118,2.23361 2.2367,3.61752 2.24032,0.7847 z"
       id="path3643-4-8-5"
       inkscape:connector-curvature="0" />
    <path
       style="color:#000000;fill:#1e1e1e;fill-opacity:1;fill-rule:evenodd;stroke:none;stroke-width:3.29999995;marker:none;visibility:visible;display:inline;overflow:visible;enable-background:accumulate"
       d="m 206.28894,319.83994 c -3.51958,-10.50668 -8.80324,-18.26282 -12.58694,-28.37741 -0.9006,-1.16782 -1.00984,-4.22434 -2.25697,-4.38757 -1.67274,1.05877 -0.0352,5.00707 0.98705,5.85972 1.87375,2.67723 2.89176,6.87774 4.58572,9.9055 2.37223,4.86445 4.69959,9.80705 7.04441,14.71913 -0.007,1.85752 1.50177,4.74364 2.22673,2.28063 z"
       id="path3645-3-6-95"
       inkscape:connector-curvature="0" />
    <path
       style="color:#000000;fill:#1e1e1e;fill-opacity:1;fill-rule:evenodd;stroke:none;stroke-width:0.30000001;marker:none;visibility:visible;display:inline;overflow:visible;enable-background:accumulate"
       d="m 207.51976,312.14639 c -4.17504,-8.41718 -9.55717,-14.21318 -13.7882,-22.5146 -1.02443,-1.69499 -2.46822,-2.58295 -3.10947,-5.01873 -1.57293,-1.66369 -1.98258,4.59348 -0.24564,4.23957 1.31031,1.00949 2.31768,3.02694 3.4397,4.60819 3.40727,5.33962 6.56822,11.26662 10.20093,16.07127 0.68157,1.99512 2.09991,5.09443 3.39931,3.00941 l 0.10338,-0.39511 z"
       id="path3647-1-5-10"
       inkscape:connector-curvature="0" />
    <path
       style="color:#000000;fill:#1e1e1e;fill-opacity:1;fill-rule:evenodd;stroke:none;stroke-width:3.29999995;marker:none;visibility:visible;display:inline;overflow:visible;enable-background:accumulate"
       id="path3639-0-6"
       d="m 170.05665,290.24023 c 0.63287,-1.9192 1.27234,-3.82985 1.94593,-5.70156 1.30885,-3.26376 2.91867,-6.05479 4.34878,-9.13019 0.86057,-1.85061 1.4014,-3.16854 2.21042,-5.07608 0.86719,-2.01795 1.65284,-4.14602 2.4668,-6.23539 0.65045,-1.6697 1.30897,-3.32585 1.94978,-5.00846 0.84466,-2.30457 1.80684,-4.4666 2.86841,-6.44528 0.42285,-0.78817 0.93963,-1.63623 1.38741,-2.38651 0.72525,-1.12681 0.38184,-0.60124 1.02885,-1.57984 0.81855,-1.23776 1.77005,0.89184 0.95152,2.1296 l 0,0 c -0.61791,0.93415 -0.29371,0.43865 -0.9716,1.48869 -0.38735,0.64841 -0.93802,1.55448 -1.30173,2.23099 -1.01334,1.88472 -1.93222,3.94412 -2.73565,6.14423 -0.6414,1.68389 -1.30041,3.34151 -1.95136,5.01257 -0.82839,2.12655 -1.62857,4.29164 -2.51113,6.34548 -0.84521,1.9917 -1.37199,3.27735 -2.27291,5.21384 -1.38442,2.97572 -2.93739,5.68277 -4.21855,8.81928 -0.65882,1.82664 -1.28139,3.69475 -1.90062,5.56763 -0.5339,1.68374 -1.82824,0.29472 -1.29435,-1.389 z"
       inkscape:connector-curvature="0" />
    <path
       style="color:#000000;fill:#1e1e1e;fill-opacity:1;fill-rule:evenodd;stroke:none;stroke-width:3.29999995;marker:none;visibility:visible;display:inline;overflow:visible;enable-background:accumulate"
       id="path3641-0-4"
       d="m 173.026,292.25444 c 0.66164,-3.39654 1.92263,-6.25288 3.09511,-9.09114 2.06458,-4.75146 3.84975,-9.87913 5.5625,-15.07342 0.23852,-0.78068 0.48209,-1.55619 0.71554,-2.342 0.22931,-0.77189 0.45645,-1.54619 0.67263,-2.33078 0.6604,-2.39678 1.24536,-4.86141 1.96539,-7.20301 0.2343,-0.76192 0.4925,-1.49809 0.73875,-2.24713 0.88237,-2.46208 1.89588,-4.75107 2.91043,-7.02971 0.67149,-1.50786 1.83064,0.23914 1.15914,1.74699 l 0,0 c -0.97004,2.17776 -1.93952,4.36451 -2.78806,6.71142 -0.23184,0.70229 -0.4754,1.39196 -0.69555,2.10689 -0.72117,2.34198 -1.30545,4.80998 -1.96671,7.20756 -0.22177,0.8042 -0.45467,1.598 -0.68995,2.38912 -0.24156,0.81222 -0.49365,1.61372 -0.74048,2.42058 -1.74038,5.27601 -3.55441,10.48403 -5.65078,15.31193 -1.05337,2.54758 -2.18028,5.09093 -2.83423,8.09129 -0.25699,1.89107 -1.71072,1.22248 -1.45373,-0.66859 z"
       inkscape:connector-curvature="0" />
    <path
       style="color:#000000;fill:#1e1e1e;fill-opacity:1;fill-rule:evenodd;stroke:none;stroke-width:3.29999995;marker:none;visibility:visible;display:inline;overflow:visible;enable-background:accumulate"
       id="path3643-6-5"
       d="m 169.2932,280.06236 c 0.3858,-0.95801 0.84825,-1.79535 1.29676,-2.65091 0.31417,-0.59927 0.61857,-1.21632 0.94151,-1.79962 1.00149,-1.80885 1.86217,-3.18325 2.91533,-4.91829 2.06976,-3.29657 4.13808,-6.62298 5.88597,-10.51884 0.65148,-1.45207 1.6107,-3.90758 2.21892,-5.436 1.3697,-3.53993 2.81514,-7.00593 4.48684,-10.08504 0.47451,-0.77597 0.24284,-0.42896 0.68963,-1.05316 0.84778,-1.16926 1.74663,1.0364 0.89885,2.20565 l 0,0 c -0.33026,0.44709 -0.15119,0.18683 -0.52963,0.79813 -1.6217,2.97071 -3.00777,6.34581 -4.3367,9.76308 -0.66284,1.66477 -1.59577,4.05677 -2.30496,5.63258 -1.78827,3.97356 -3.89397,7.38323 -6.00938,10.7474 -0.97744,1.60955 -1.90156,3.0899 -2.83524,4.77612 -0.32418,0.58548 -0.62951,1.20528 -0.94509,1.80646 -0.38603,0.73541 -0.78356,1.45352 -1.12602,2.26157 -0.58775,1.62189 -1.83454,0.0928 -1.24679,-1.52913 z"
       inkscape:connector-curvature="0" />
    <path
       style="color:#000000;fill:#1e1e1e;fill-opacity:1;fill-rule:evenodd;stroke:none;stroke-width:3.29999995;marker:none;visibility:visible;display:inline;overflow:visible;enable-background:accumulate"
       id="path3645-1-30"
       d="m 172.45284,278.93013 c 0.41792,-2.01564 1.16916,-3.61603 1.90753,-5.19272 0.73289,-1.56505 1.57961,-3.28067 2.32553,-4.80759 2.06271,-4.2566 4.15043,-8.46688 6.17068,-12.80239 1.78722,-4.02492 3.57727,-8.04475 5.36977,-12.06062 0.61671,-1.38168 1.60797,0.33757 0.99125,1.71925 l 0,0 c -1.79874,4.02983 -3.59475,8.06409 -5.38871,12.10214 -2.02755,4.35 -4.12176,8.57626 -6.19195,12.84699 -0.84715,1.73402 -1.47475,3.0014 -2.29707,4.74744 -0.64302,1.36535 -1.31281,2.7333 -1.67632,4.48573 -0.37242,1.68759 -1.58315,0.64934 -1.21071,-1.03823 z"
       inkscape:connector-curvature="0" />
    <path
       style="color:#000000;fill:#1e1e1e;fill-opacity:1;fill-rule:evenodd;stroke:none;stroke-width:3.29999995;marker:none;visibility:visible;display:inline;overflow:visible;enable-background:accumulate"
       d="m 205.6934,291.91169 c -2.80095,-10.37552 -7.7009,-18.32474 -10.09216,-29.13537 -1.28979,-4.63468 -2.57768,-9.32787 -4.34909,-13.40853 -0.68571,-3.42759 -2.97944,2.16656 -1.06174,2.85202 1.56489,2.4512 2.47565,5.98725 3.40773,9.30235 1.08736,4.21026 2.22345,8.38671 3.64419,12.25022 1.7264,5.01887 3.6237,9.83713 5.69387,14.38666 0.15522,2.22778 1.40921,5.48055 2.7572,3.75265 z"
       id="path3641-5-8-8"
       inkscape:connector-curvature="0" />
    <path
       style="color:#000000;fill:#1e1e1e;fill-opacity:1;fill-rule:evenodd;stroke:none;stroke-width:3.29999995;marker:none;visibility:visible;display:inline;overflow:visible;enable-background:accumulate"
       d="m 206.56118,285.70884 c -3.23547,-10.57406 -8.46481,-18.29536 -11.71058,-28.85569 -1.58808,-4.1574 -3.27318,-8.25636 -5.37447,-11.5273 -1.19407,1.67071 -0.45591,5.46432 0.83265,6.14573 2.59011,3.15672 3.68942,8.9205 5.65364,13.18709 2.51437,6.30724 5.25111,12.27563 7.98097,18.2443 0.32922,1.76603 1.11413,4.44545 2.28675,3.79099 0.13023,-0.22195 0.51199,-0.55213 0.33104,-0.98512 z"
       id="path3639-9-3-9"
       inkscape:connector-curvature="0" />
    <path
       style="color:#000000;fill:#1e1e1e;fill-opacity:1;fill-rule:evenodd;stroke:none;stroke-width:3.29999995;marker:none;visibility:visible;display:inline;overflow:visible;enable-background:accumulate"
       d="m 206.47337,278.06991 c -3.51958,-10.50668 -8.80326,-18.26282 -12.58694,-28.37741 -0.9006,-1.16782 -1.00984,-4.22434 -2.25698,-4.38757 -1.67272,1.05876 -0.0352,5.00707 0.98706,5.85972 1.87375,2.67723 2.89176,6.87774 4.58573,9.9055 2.37222,4.86444 4.69957,9.80704 7.0444,14.71912 -0.007,1.85752 1.50178,4.74364 2.22673,2.28064 z"
       id="path3645-3-4-13"
       inkscape:connector-curvature="0" />
    <path
       style="color:#000000;fill:#1e1e1e;fill-opacity:1;fill-rule:evenodd;stroke:none;stroke-width:0.30000001;marker:none;visibility:visible;display:inline;overflow:visible;enable-background:accumulate"
       d="m 206.55749,269.52158 c -4.17502,-8.4172 -9.55715,-14.21319 -13.78819,-22.51462 -1.02442,-1.69499 -2.46821,-2.58293 -3.10947,-5.01871 -1.57294,-1.66371 -1.98258,4.59346 -0.24565,4.23956 1.31032,1.00949 2.31767,3.02693 3.43971,4.60818 3.40727,5.33962 6.56821,11.26663 10.20093,16.07128 0.68157,1.99512 2.09991,5.09442 3.3993,3.00941 l 0.10338,-0.3951 z"
       id="path3647-1-6-4"
       inkscape:connector-curvature="0" />
  </g>
</svg>
